<svg width="144" height="16" viewBox="0 0 144 16" fill="none" xmlns="http://www.w3.org/2000/svg">
<path d="M0.991562 0.625H2.74156L6.03062 9.39844L9.31187 0.625H11.0619L6.71812 12H5.3275L0.991562 0.625ZM0.194687 0.625H1.85875L2.14781 8.21875V12H0.194687V0.625ZM10.1947 0.625H11.8666V12H9.90562V8.21875L10.1947 0.625ZM16.4325 9.25L19.7528 3.54688H21.6356V12H19.7528V6.28906L16.4325 12H14.5497V3.54688H16.4325V9.25ZM25.5453 3.54688L27.1547 6.35156L28.7953 3.54688H30.8656L28.3031 7.69531L30.9672 12H28.8969L27.1781 9.07812L25.4594 12H23.3812L26.0375 7.69531L23.4828 3.54688H25.5453ZM37.4003 10.3047V6.27344C37.4003 5.97135 37.3456 5.71094 37.2362 5.49219C37.1269 5.27344 36.9602 5.10417 36.7362 4.98438C36.5175 4.86458 36.2415 4.80469 35.9081 4.80469C35.6008 4.80469 35.3352 4.85677 35.1112 4.96094C34.8873 5.0651 34.7128 5.20573 34.5878 5.38281C34.4628 5.5599 34.4003 5.76042 34.4003 5.98438H32.5253C32.5253 5.65104 32.606 5.32812 32.7675 5.01562C32.929 4.70312 33.1633 4.42448 33.4706 4.17969C33.7779 3.9349 34.1451 3.74219 34.5722 3.60156C34.9993 3.46094 35.4784 3.39062 36.0097 3.39062C36.6451 3.39062 37.2076 3.4974 37.6972 3.71094C38.192 3.92448 38.58 4.2474 38.8612 4.67969C39.1477 5.10677 39.2909 5.64323 39.2909 6.28906V10.0469C39.2909 10.4323 39.317 10.7786 39.3691 11.0859C39.4264 11.388 39.5071 11.651 39.6112 11.875V12H37.6816C37.593 11.7969 37.5227 11.5391 37.4706 11.2266C37.4237 10.9089 37.4003 10.6016 37.4003 10.3047ZM37.6737 6.85938L37.6894 8.02344H36.3378C35.9889 8.02344 35.6816 8.05729 35.4159 8.125C35.1503 8.1875 34.929 8.28125 34.7519 8.40625C34.5748 8.53125 34.442 8.68229 34.3534 8.85938C34.2649 9.03646 34.2206 9.23698 34.2206 9.46094C34.2206 9.6849 34.2727 9.89062 34.3769 10.0781C34.481 10.2604 34.6321 10.4036 34.83 10.5078C35.0331 10.612 35.2779 10.6641 35.5644 10.6641C35.9498 10.6641 36.2857 10.5859 36.5722 10.4297C36.8639 10.2682 37.093 10.0729 37.2597 9.84375C37.4264 9.60938 37.5149 9.38802 37.5253 9.17969L38.1347 10.0156C38.0722 10.2292 37.9654 10.4583 37.8144 10.7031C37.6633 10.9479 37.4654 11.1823 37.2206 11.4062C36.981 11.625 36.692 11.8047 36.3534 11.9453C36.0201 12.0859 35.6347 12.1562 35.1972 12.1562C34.6451 12.1562 34.1529 12.0469 33.7206 11.8281C33.2883 11.6042 32.9498 11.3047 32.705 10.9297C32.4602 10.5495 32.3378 10.1198 32.3378 9.64062C32.3378 9.19271 32.4211 8.79688 32.5878 8.45312C32.7597 8.10417 33.0097 7.8125 33.3378 7.57812C33.6711 7.34375 34.0774 7.16667 34.5566 7.04688C35.0357 6.92188 35.5826 6.85938 36.1972 6.85938H37.6737ZM43.685 9.25L47.0053 3.54688H48.8881V12H47.0053V6.28906L43.685 12H41.8022V3.54688H43.685V9.25ZM46.5053 0.296875H47.9037C47.9037 0.729167 47.7996 1.11198 47.5912 1.44531C47.3881 1.77344 47.0965 2.03125 46.7162 2.21875C46.3412 2.40625 45.8933 2.5 45.3725 2.5C44.586 2.5 43.9636 2.29688 43.5053 1.89062C43.0522 1.47917 42.8256 0.947917 42.8256 0.296875H44.2241C44.2241 0.588542 44.31 0.846354 44.4819 1.07031C44.659 1.28906 44.9558 1.39844 45.3725 1.39844C45.784 1.39844 46.0756 1.28906 46.2475 1.07031C46.4194 0.846354 46.5053 0.588542 46.5053 0.296875ZM57.04 3.54688V5.04688H52.915V3.54688H57.04ZM58.5166 3.54688V12H56.6338V3.54688H58.5166ZM52.4541 3.54688H54.3134L54.0869 7.72656C54.0556 8.34635 53.9931 8.89323 53.8994 9.36719C53.8108 9.83594 53.691 10.2396 53.54 10.5781C53.389 10.9115 53.2041 11.1823 52.9853 11.3906C52.7666 11.599 52.5114 11.7526 52.2197 11.8516C51.928 11.9505 51.5999 12 51.2353 12H50.6494L50.6416 10.4531L50.9384 10.4297C51.1311 10.4141 51.2978 10.3646 51.4384 10.2812C51.5791 10.1927 51.6989 10.0677 51.7978 9.90625C51.902 9.74479 51.9853 9.53646 52.0478 9.28125C52.1155 9.02604 52.1676 8.72396 52.2041 8.375C52.2457 8.02604 52.277 7.61979 52.2978 7.15625L52.4541 3.54688ZM60.6372 7.86719V7.6875C60.6372 7.07812 60.7257 6.51302 60.9028 5.99219C61.0799 5.46615 61.3351 5.01042 61.6684 4.625C62.007 4.23438 62.4184 3.93229 62.9028 3.71875C63.3924 3.5 63.9445 3.39062 64.5591 3.39062C65.1789 3.39062 65.7309 3.5 66.2153 3.71875C66.7049 3.93229 67.119 4.23438 67.4575 4.625C67.796 5.01042 68.0539 5.46615 68.2309 5.99219C68.408 6.51302 68.4966 7.07812 68.4966 7.6875V7.86719C68.4966 8.47656 68.408 9.04167 68.2309 9.5625C68.0539 10.0833 67.796 10.5391 67.4575 10.9297C67.119 11.3151 66.7075 11.6172 66.2231 11.8359C65.7388 12.0495 65.1893 12.1562 64.5747 12.1562C63.9549 12.1562 63.4002 12.0495 62.9106 11.8359C62.4263 11.6172 62.0148 11.3151 61.6763 10.9297C61.3377 10.5391 61.0799 10.0833 60.9028 9.5625C60.7257 9.04167 60.6372 8.47656 60.6372 7.86719ZM62.52 7.6875V7.86719C62.52 8.2474 62.5591 8.60677 62.6372 8.94531C62.7153 9.28385 62.8377 9.58073 63.0044 9.83594C63.171 10.0911 63.3846 10.2917 63.645 10.4375C63.9054 10.5833 64.2153 10.6562 64.5747 10.6562C64.9236 10.6562 65.2257 10.5833 65.4809 10.4375C65.7414 10.2917 65.9549 10.0911 66.1216 9.83594C66.2882 9.58073 66.4106 9.28385 66.4888 8.94531C66.5721 8.60677 66.6138 8.2474 66.6138 7.86719V7.6875C66.6138 7.3125 66.5721 6.95833 66.4888 6.625C66.4106 6.28646 66.2856 5.98698 66.1138 5.72656C65.9471 5.46615 65.7335 5.26302 65.4731 5.11719C65.2179 4.96615 64.9132 4.89062 64.5591 4.89062C64.2049 4.89062 63.8976 4.96615 63.6372 5.11719C63.382 5.26302 63.171 5.46615 63.0044 5.72656C62.8377 5.98698 62.7153 6.28646 62.6372 6.625C62.5591 6.95833 62.52 7.3125 62.52 7.6875ZM80.7456 5.5V7.05469H76.105V5.5H80.7456ZM81.9331 8.29688H83.9019C83.8394 9.04167 83.6284 9.70573 83.2691 10.2891C82.9149 10.8724 82.4175 11.3307 81.7769 11.6641C81.1362 11.9922 80.3576 12.1562 79.4409 12.1562C78.7378 12.1562 78.1024 12.0312 77.5347 11.7812C76.9722 11.5312 76.4904 11.1719 76.0894 10.7031C75.6935 10.2344 75.3888 9.66927 75.1753 9.00781C74.9618 8.34635 74.855 7.60677 74.855 6.78906V5.85156C74.855 5.03385 74.9618 4.29427 75.1753 3.63281C75.3941 2.97135 75.7066 2.40625 76.1128 1.9375C76.5191 1.46354 77.0086 1.10156 77.5816 0.851562C78.1545 0.596354 78.7977 0.46875 79.5112 0.46875C80.4227 0.46875 81.1883 0.635417 81.8081 0.96875C82.4331 1.30208 82.9201 1.76302 83.2691 2.35156C83.618 2.9401 83.8316 3.61719 83.9097 4.38281H81.9487C81.8967 3.88802 81.7821 3.46615 81.605 3.11719C81.4331 2.76302 81.1779 2.49479 80.8394 2.3125C80.506 2.125 80.0633 2.03125 79.5112 2.03125C79.0685 2.03125 78.6779 2.11719 78.3394 2.28906C78.006 2.45573 77.7248 2.70312 77.4956 3.03125C77.2717 3.35417 77.1024 3.7526 76.9878 4.22656C76.8732 4.69531 76.8159 5.23177 76.8159 5.83594V6.78906C76.8159 7.2526 76.8498 7.67969 76.9175 8.07031C76.9852 8.46094 77.0842 8.8151 77.2144 9.13281C77.3498 9.44531 77.5217 9.71354 77.73 9.9375C77.9383 10.1562 78.1831 10.3229 78.4644 10.4375C78.7508 10.5521 79.0763 10.6094 79.4409 10.6094C79.9982 10.6094 80.4487 10.5208 80.7925 10.3438C81.1415 10.1667 81.4045 9.90625 81.5816 9.5625C81.7638 9.21875 81.881 8.79688 81.9331 8.29688ZM88.0459 5.17188V15.25H86.1631V3.54688H87.8975L88.0459 5.17188ZM93.5537 7.69531V7.85938C93.5537 8.47396 93.4808 9.04427 93.335 9.57031C93.1944 10.0911 92.9834 10.5469 92.7022 10.9375C92.4261 11.3229 92.085 11.6224 91.6787 11.8359C91.2725 12.0495 90.8037 12.1562 90.2725 12.1562C89.7465 12.1562 89.2855 12.0599 88.8897 11.8672C88.4991 11.6693 88.1683 11.3906 87.8975 11.0312C87.6267 10.6719 87.4079 10.25 87.2412 9.76562C87.0798 9.27604 86.9652 8.73958 86.8975 8.15625V7.52344C86.9652 6.90365 87.0798 6.34115 87.2412 5.83594C87.4079 5.33073 87.6267 4.89583 87.8975 4.53125C88.1683 4.16667 88.4991 3.88542 88.8897 3.6875C89.2803 3.48958 89.736 3.39062 90.2569 3.39062C90.7881 3.39062 91.2595 3.49479 91.6709 3.70312C92.0824 3.90625 92.4287 4.19792 92.71 4.57812C92.9912 4.95312 93.2022 5.40625 93.3428 5.9375C93.4834 6.46354 93.5537 7.04948 93.5537 7.69531ZM91.6709 7.85938V7.69531C91.6709 7.30469 91.6345 6.94271 91.5616 6.60938C91.4886 6.27083 91.3741 5.97396 91.2178 5.71875C91.0616 5.46354 90.861 5.26562 90.6162 5.125C90.3767 4.97917 90.0876 4.90625 89.7491 4.90625C89.4157 4.90625 89.1293 4.96354 88.8897 5.07812C88.6501 5.1875 88.4496 5.34115 88.2881 5.53906C88.1267 5.73698 88.0017 5.96875 87.9131 6.23438C87.8246 6.49479 87.7621 6.77865 87.7256 7.08594V8.60156C87.7881 8.97656 87.8949 9.32031 88.0459 9.63281C88.197 9.94531 88.4105 10.1953 88.6866 10.3828C88.9678 10.5651 89.3272 10.6562 89.7647 10.6562C90.1032 10.6562 90.3923 10.5833 90.6319 10.4375C90.8715 10.2917 91.0668 10.0911 91.2178 9.83594C91.3741 9.57552 91.4886 9.27604 91.5616 8.9375C91.6345 8.59896 91.6709 8.23958 91.6709 7.85938ZM100.659 9.71875L103.174 3.54688H104.807L101.299 12H100.018L96.5181 3.54688H98.1509L100.659 9.71875ZM97.6666 3.54688V12H95.7838V3.54688H97.6666ZM103.651 12V3.54688H105.542V12H103.651ZM112.897 10.3047V6.27344C112.897 5.97135 112.842 5.71094 112.732 5.49219C112.623 5.27344 112.456 5.10417 112.232 4.98438C112.014 4.86458 111.738 4.80469 111.404 4.80469C111.097 4.80469 110.831 4.85677 110.607 4.96094C110.384 5.0651 110.209 5.20573 110.084 5.38281C109.959 5.5599 109.897 5.76042 109.897 5.98438H108.022C108.022 5.65104 108.102 5.32812 108.264 5.01562C108.425 4.70312 108.66 4.42448 108.967 4.17969C109.274 3.9349 109.641 3.74219 110.068 3.60156C110.496 3.46094 110.975 3.39062 111.506 3.39062C112.141 3.39062 112.704 3.4974 113.193 3.71094C113.688 3.92448 114.076 4.2474 114.357 4.67969C114.644 5.10677 114.787 5.64323 114.787 6.28906V10.0469C114.787 10.4323 114.813 10.7786 114.865 11.0859C114.923 11.388 115.003 11.651 115.107 11.875V12H113.178C113.089 11.7969 113.019 11.5391 112.967 11.2266C112.92 10.9089 112.897 10.6016 112.897 10.3047ZM113.17 6.85938L113.186 8.02344H111.834C111.485 8.02344 111.178 8.05729 110.912 8.125C110.647 8.1875 110.425 8.28125 110.248 8.40625C110.071 8.53125 109.938 8.68229 109.85 8.85938C109.761 9.03646 109.717 9.23698 109.717 9.46094C109.717 9.6849 109.769 9.89062 109.873 10.0781C109.977 10.2604 110.128 10.4036 110.326 10.5078C110.529 10.612 110.774 10.6641 111.061 10.6641C111.446 10.6641 111.782 10.5859 112.068 10.4297C112.36 10.2682 112.589 10.0729 112.756 9.84375C112.923 9.60938 113.011 9.38802 113.022 9.17969L113.631 10.0156C113.568 10.2292 113.462 10.4583 113.311 10.7031C113.16 10.9479 112.962 11.1823 112.717 11.4062C112.477 11.625 112.188 11.8047 111.85 11.9453C111.516 12.0859 111.131 12.1562 110.693 12.1562C110.141 12.1562 109.649 12.0469 109.217 11.8281C108.785 11.6042 108.446 11.3047 108.201 10.9297C107.956 10.5495 107.834 10.1198 107.834 9.64062C107.834 9.19271 107.917 8.79688 108.084 8.45312C108.256 8.10417 108.506 7.8125 108.834 7.57812C109.167 7.34375 109.574 7.16667 110.053 7.04688C110.532 6.92188 111.079 6.85938 111.693 6.85938H113.17ZM119.267 3.54688V12H117.384V3.54688H119.267ZM124.783 3.54688L120.978 8.63281H118.83L118.58 6.92969H120.15L122.431 3.54688H124.783ZM122.58 12L120.033 8.3125L121.517 7.24219L125.056 12H122.58ZM125.919 7.86719V7.6875C125.919 7.07812 126.008 6.51302 126.185 5.99219C126.362 5.46615 126.617 5.01042 126.95 4.625C127.289 4.23438 127.7 3.93229 128.185 3.71875C128.674 3.5 129.226 3.39062 129.841 3.39062C130.461 3.39062 131.013 3.5 131.497 3.71875C131.987 3.93229 132.401 4.23438 132.739 4.625C133.078 5.01042 133.336 5.46615 133.513 5.99219C133.69 6.51302 133.778 7.07812 133.778 7.6875V7.86719C133.778 8.47656 133.69 9.04167 133.513 9.5625C133.336 10.0833 133.078 10.5391 132.739 10.9297C132.401 11.3151 131.989 11.6172 131.505 11.8359C131.021 12.0495 130.471 12.1562 129.857 12.1562C129.237 12.1562 128.682 12.0495 128.192 11.8359C127.708 11.6172 127.297 11.3151 126.958 10.9297C126.62 10.5391 126.362 10.0833 126.185 9.5625C126.008 9.04167 125.919 8.47656 125.919 7.86719ZM127.802 7.6875V7.86719C127.802 8.2474 127.841 8.60677 127.919 8.94531C127.997 9.28385 128.12 9.58073 128.286 9.83594C128.453 10.0911 128.666 10.2917 128.927 10.4375C129.187 10.5833 129.497 10.6562 129.857 10.6562C130.206 10.6562 130.508 10.5833 130.763 10.4375C131.023 10.2917 131.237 10.0911 131.403 9.83594C131.57 9.58073 131.692 9.28385 131.771 8.94531C131.854 8.60677 131.896 8.2474 131.896 7.86719V7.6875C131.896 7.3125 131.854 6.95833 131.771 6.625C131.692 6.28646 131.567 5.98698 131.396 5.72656C131.229 5.46615 131.015 5.26302 130.755 5.11719C130.5 4.96615 130.195 4.89062 129.841 4.89062C129.487 4.89062 129.179 4.96615 128.919 5.11719C128.664 5.26302 128.453 5.46615 128.286 5.72656C128.12 5.98698 127.997 6.28646 127.919 6.625C127.841 6.95833 127.802 7.3125 127.802 7.6875ZM139.946 8.38281H137.243L137.227 7.05469H139.446C139.811 7.05469 140.11 7.01823 140.344 6.94531C140.584 6.8724 140.761 6.76302 140.876 6.61719C140.99 6.46615 141.048 6.28385 141.048 6.07031C141.048 5.89323 141.014 5.73958 140.946 5.60938C140.878 5.47396 140.774 5.36458 140.633 5.28125C140.498 5.19271 140.326 5.13021 140.118 5.09375C139.915 5.05208 139.678 5.03125 139.407 5.03125H137.868V12H135.985V3.54688H139.407C139.949 3.54688 140.436 3.59375 140.868 3.6875C141.305 3.78125 141.678 3.92448 141.985 4.11719C142.292 4.3099 142.527 4.55469 142.688 4.85156C142.855 5.14323 142.938 5.48698 142.938 5.88281C142.938 6.14323 142.881 6.38802 142.766 6.61719C142.657 6.84635 142.493 7.04948 142.274 7.22656C142.055 7.40365 141.787 7.54948 141.469 7.66406C141.152 7.77344 140.787 7.84115 140.376 7.86719L139.946 8.38281ZM139.946 12H136.696L137.446 10.5156H139.946C140.279 10.5156 140.555 10.474 140.774 10.3906C140.993 10.3073 141.154 10.1875 141.258 10.0312C141.368 9.86979 141.423 9.67969 141.423 9.46094C141.423 9.23698 141.37 9.04427 141.266 8.88281C141.162 8.72135 141.001 8.59896 140.782 8.51562C140.568 8.42708 140.29 8.38281 139.946 8.38281H137.798L137.813 7.05469H140.368L140.907 7.57031C141.443 7.60677 141.889 7.72135 142.243 7.91406C142.597 8.10677 142.863 8.34896 143.04 8.64062C143.217 8.93229 143.305 9.25 143.305 9.59375C143.305 9.98958 143.23 10.3385 143.079 10.6406C142.933 10.9427 142.714 11.1953 142.423 11.3984C142.136 11.5964 141.784 11.7474 141.368 11.8516C140.951 11.9505 140.477 12 139.946 12Z" fill="#212121"/>
</svg>
